<svg xmlns="http://www.w3.org/2000/svg" width="1920" height="1080"><path d="M-133,-430L186,-442L520,-477Z" fill="#ebebeb" stroke="#ebebeb" stroke-width="1.51"/><path d="M-149,1417L-439,1395L728,1515Z" fill="#777777" stroke="#777777" stroke-width="1.51"/><path d="M366,1461L-149,1417L728,1515Z" fill="#6d6d6d" stroke="#6d6d6d" stroke-width="1.51"/><path d="M520,-477L694,-425L1156,-371Z" fill="#d0d0d0" stroke="#d0d0d0" stroke-width="1.51"/><path d="M1156,-371L1576,-375L1691,-394Z" fill="#ababab" stroke="#ababab" stroke-width="1.51"/><path d="M520,-477L1156,-371L1691,-394Z" fill="#bebebe" stroke="#bebebe" stroke-width="1.51"/><path d="M1514,1453L987,1516L1781,1463Z" fill="#3d3d3d" stroke="#3d3d3d" stroke-width="1.51"/><path d="M520,-477L1691,-394L2009,-410Z" fill="#b0b0b0" stroke="#b0b0b0" stroke-width="1.51"/><path d="M1781,1463L987,1516L2238,1504Z" fill="#323232" stroke="#323232" stroke-width="1.51"/><path d="M2222,1018L2202,1253L2238,1504Z" fill="#242424" stroke="#242424" stroke-width="1.51"/><path d="M2110,848L2222,1018L2295,715Z" fill="#404040" stroke="#404040" stroke-width="1.51"/><path d="M2222,1018L2238,1504L2295,715Z" fill="#313131" stroke="#313131" stroke-width="1.51"/><path d="M520,-477L2009,-410L2300,-422Z" fill="#a6a6a6" stroke="#a6a6a6" stroke-width="1.51"/><path d="M2009,-410L2064,-26L2300,-422Z" fill="#808080" stroke="#808080" stroke-width="1.51"/><path d="M2300,-422L2064,-26L2342,-87Z" fill="#767676" stroke="#767676" stroke-width="1.51"/><path d="M2064,-26L2203,228L2342,-87Z" fill="#707070" stroke="#707070" stroke-width="1.51"/><path d="M2203,228L1923,504L2350,374Z" fill="#606060" stroke="#606060" stroke-width="1.51"/><path d="M1923,504L2073,706L2350,374Z" fill="#585858" stroke="#585858" stroke-width="1.51"/><path d="M2073,706L2295,715L2350,374Z" fill="#4e4e4e" stroke="#4e4e4e" stroke-width="1.51"/><path d="M2295,715L2238,1504L2350,374Z" fill="#3c3c3c" stroke="#3c3c3c" stroke-width="1.51"/><path d="M2342,-87L2203,228L2350,374Z" fill="#656565" stroke="#656565" stroke-width="1.51"/><path d="M2063,219L1923,504L2203,228Z" fill="#696969" stroke="#696969" stroke-width="1.51"/><path d="M2070,1391L1781,1463L2238,1504Z" fill="#202020" stroke="#202020" stroke-width="1.51"/><path d="M2202,1253L2070,1391L2238,1504Z" fill="#1d1d1d" stroke="#1d1d1d" stroke-width="1.51"/><path d="M2073,706L2110,848L2295,715Z" fill="#484848" stroke="#484848" stroke-width="1.51"/><path d="M2064,-26L2063,219L2203,228Z" fill="#6f6f6f" stroke="#6f6f6f" stroke-width="1.51"/><path d="M2051,1281L2202,1253L2222,1018Z" fill="#2d2d2d" stroke="#2d2d2d" stroke-width="1.51"/><path d="M2051,1281L2070,1391L2202,1253Z" fill="#242424" stroke="#242424" stroke-width="1.51"/><path d="M2110,848L2051,1281L2222,1018Z" fill="#393939" stroke="#393939" stroke-width="1.51"/><path d="M1771,1212L2051,1281L2110,848Z" fill="#3c3c3c" stroke="#3c3c3c" stroke-width="1.51"/><path d="M2009,-410L1710,-39L2064,-26Z" fill="#888888" stroke="#888888" stroke-width="1.51"/><path d="M1763,139L2063,219L2064,-26Z" fill="#7a7a7a" stroke="#7a7a7a" stroke-width="1.51"/><path d="M1720,846L1771,1212L2110,848Z" fill="#4c4c4c" stroke="#4c4c4c" stroke-width="1.51"/><path d="M2073,706L1720,846L2110,848Z" fill="#505050" stroke="#505050" stroke-width="1.51"/><path d="M1691,-394L1710,-39L2009,-410Z" fill="#959595" stroke="#959595" stroke-width="1.51"/><path d="M1770,308L1923,504L2063,219Z" fill="#717171" stroke="#717171" stroke-width="1.51"/><path d="M1923,504L1720,846L2073,706Z" fill="#5c5c5c" stroke="#5c5c5c" stroke-width="1.51"/><path d="M2051,1281L1781,1463L2070,1391Z" fill="#272727" stroke="#272727" stroke-width="1.51"/><path d="M1710,-39L1763,139L2064,-26Z" fill="#868686" stroke="#868686" stroke-width="1.51"/><path d="M1763,139L1770,308L2063,219Z" fill="#7c7c7c" stroke="#7c7c7c" stroke-width="1.51"/><path d="M1667,770L1720,846L1923,504Z" fill="#636363" stroke="#636363" stroke-width="1.51"/><path d="M1771,1212L1781,1463L2051,1281Z" fill="#313131" stroke="#313131" stroke-width="1.51"/><path d="M1208,1431L987,1516L1514,1453Z" fill="#454545" stroke="#454545" stroke-width="1.51"/><path d="M1770,308L1583,684L1923,504Z" fill="#717171" stroke="#717171" stroke-width="1.51"/><path d="M1583,684L1667,770L1923,504Z" fill="#696969" stroke="#696969" stroke-width="1.51"/><path d="M1576,-375L1577,-104L1691,-394Z" fill="#a2a2a2" stroke="#a2a2a2" stroke-width="1.51"/><path d="M1691,-394L1577,-104L1710,-39Z" fill="#9c9c9c" stroke="#9c9c9c" stroke-width="1.51"/><path d="M1452,838L1468,1163L1720,846Z" fill="#606060" stroke="#606060" stroke-width="1.51"/><path d="M1471,377L1583,684L1770,308Z" fill="#7d7d7d" stroke="#7d7d7d" stroke-width="1.51"/><path d="M1763,139L1562,183L1770,308Z" fill="#888888" stroke="#888888" stroke-width="1.51"/><path d="M1720,846L1468,1163L1771,1212Z" fill="#535353" stroke="#535353" stroke-width="1.51"/><path d="M1468,1163L1514,1453L1771,1212Z" fill="#444444" stroke="#444444" stroke-width="1.51"/><path d="M1771,1212L1514,1453L1781,1463Z" fill="#383838" stroke="#383838" stroke-width="1.51"/><path d="M1710,-39L1562,183L1763,139Z" fill="#8f8f8f" stroke="#8f8f8f" stroke-width="1.51"/><path d="M1562,183L1471,377L1770,308Z" fill="#898989" stroke="#898989" stroke-width="1.51"/><path d="M1577,-104L1562,183L1710,-39Z" fill="#969696" stroke="#969696" stroke-width="1.51"/><path d="M1667,770L1452,838L1720,846Z" fill="#656565" stroke="#656565" stroke-width="1.51"/><path d="M1583,684L1452,838L1667,770Z" fill="#6a6a6a" stroke="#6a6a6a" stroke-width="1.51"/><path d="M1156,-371L1198,-95L1576,-375Z" fill="#b0b0b0" stroke="#b0b0b0" stroke-width="1.51"/><path d="M1287,166L1562,183L1577,-104Z" fill="#999999" stroke="#999999" stroke-width="1.51"/><path d="M1198,-95L1287,166L1577,-104Z" fill="#a4a4a4" stroke="#a4a4a4" stroke-width="1.51"/><path d="M1576,-375L1198,-95L1577,-104Z" fill="#a6a6a6" stroke="#a6a6a6" stroke-width="1.51"/><path d="M1471,377L1264,613L1583,684Z" fill="#7e7e7e" stroke="#7e7e7e" stroke-width="1.51"/><path d="M1264,613L1452,838L1583,684Z" fill="#747474" stroke="#747474" stroke-width="1.51"/><path d="M1452,838L1266,904L1468,1163Z" fill="#656565" stroke="#656565" stroke-width="1.51"/><path d="M1468,1163L1295,1182L1514,1453Z" fill="#4c4c4c" stroke="#4c4c4c" stroke-width="1.51"/><path d="M1287,166L1471,377L1562,183Z" fill="#939393" stroke="#939393" stroke-width="1.51"/><path d="M1266,904L1295,1182L1468,1163Z" fill="#606060" stroke="#606060" stroke-width="1.51"/><path d="M1295,1182L1208,1431L1514,1453Z" fill="#494949" stroke="#494949" stroke-width="1.51"/><path d="M1264,613L1266,904L1452,838Z" fill="#747474" stroke="#747474" stroke-width="1.51"/><path d="M1287,166L1177,401L1471,377Z" fill="#959595" stroke="#959595" stroke-width="1.51"/><path d="M1177,401L1264,613L1471,377Z" fill="#8b8b8b" stroke="#8b8b8b" stroke-width="1.51"/><path d="M694,-425L1051,-342L1156,-371Z" fill="#c5c5c5" stroke="#c5c5c5" stroke-width="1.51"/><path d="M1264,613L961,575L1266,904Z" fill="#818181" stroke="#818181" stroke-width="1.51"/><path d="M961,575L968,953L1266,904Z" fill="#7f7f7f" stroke="#7f7f7f" stroke-width="1.51"/><path d="M968,953L991,1180L1266,904Z" fill="#727272" stroke="#727272" stroke-width="1.51"/><path d="M1023,313L1177,401L1287,166Z" fill="#9e9e9e" stroke="#9e9e9e" stroke-width="1.51"/><path d="M1198,-95L972,168L1287,166Z" fill="#aaaaaa" stroke="#aaaaaa" stroke-width="1.51"/><path d="M1266,904L991,1180L1295,1182Z" fill="#676767" stroke="#676767" stroke-width="1.51"/><path d="M991,1180L1208,1431L1295,1182Z" fill="#575757" stroke="#575757" stroke-width="1.51"/><path d="M972,168L1023,313L1287,166Z" fill="#a6a6a6" stroke="#a6a6a6" stroke-width="1.51"/><path d="M1156,-371L1051,-342L1198,-95Z" fill="#bababa" stroke="#bababa" stroke-width="1.51"/><path d="M1177,401L961,575L1264,613Z" fill="#8e8e8e" stroke="#8e8e8e" stroke-width="1.51"/><path d="M1051,-342L962,-160L1198,-95Z" fill="#bababa" stroke="#bababa" stroke-width="1.51"/><path d="M962,-160L972,168L1198,-95Z" fill="#b4b4b4" stroke="#b4b4b4" stroke-width="1.51"/><path d="M991,1180L987,1516L1208,1431Z" fill="#535353" stroke="#535353" stroke-width="1.51"/><path d="M1023,313L961,575L1177,401Z" fill="#999999" stroke="#999999" stroke-width="1.51"/><path d="M649,642L764,976L961,575Z" fill="#929292" stroke="#929292" stroke-width="1.51"/><path d="M961,575L764,976L968,953Z" fill="#868686" stroke="#868686" stroke-width="1.51"/><path d="M962,-160L676,-57L972,168Z" fill="#bdbdbd" stroke="#bdbdbd" stroke-width="1.51"/><path d="M728,1515L987,1516L991,1180Z" fill="#585858" stroke="#585858" stroke-width="1.51"/><path d="M694,-425L962,-160L1051,-342Z" fill="#c7c7c7" stroke="#c7c7c7" stroke-width="1.51"/><path d="M968,953L764,976L991,1180Z" fill="#787878" stroke="#787878" stroke-width="1.51"/><path d="M972,168L596,452L1023,313Z" fill="#acacac" stroke="#acacac" stroke-width="1.51"/><path d="M596,452L961,575L1023,313Z" fill="#a2a2a2" stroke="#a2a2a2" stroke-width="1.51"/><path d="M627,96L596,452L972,168Z" fill="#b7b7b7" stroke="#b7b7b7" stroke-width="1.51"/><path d="M676,-57L627,96L972,168Z" fill="#bfbfbf" stroke="#bfbfbf" stroke-width="1.51"/><path d="M764,976L632,1132L991,1180Z" fill="#787878" stroke="#787878" stroke-width="1.51"/><path d="M632,1132L728,1515L991,1180Z" fill="#696969" stroke="#696969" stroke-width="1.51"/><path d="M239,1423L-149,1417L366,1461Z" fill="#747474" stroke="#747474" stroke-width="1.51"/><path d="M596,452L649,642L961,575Z" fill="#a1a1a1" stroke="#a1a1a1" stroke-width="1.51"/><path d="M694,-425L676,-57L962,-160Z" fill="#cacaca" stroke="#cacaca" stroke-width="1.51"/><path d="M528,214L596,452L627,96Z" fill="#bebebe" stroke="#bebebe" stroke-width="1.51"/><path d="M512,-25L676,-57L694,-425Z" fill="#d1d1d1" stroke="#d1d1d1" stroke-width="1.51"/><path d="M520,-477L512,-25L694,-425Z" fill="#d9d9d9" stroke="#d9d9d9" stroke-width="1.51"/><path d="M632,1132L366,1461L728,1515Z" fill="#6b6b6b" stroke="#6b6b6b" stroke-width="1.51"/><path d="M649,642L521,1022L764,976Z" fill="#909090" stroke="#909090" stroke-width="1.51"/><path d="M521,1022L632,1132L764,976Z" fill="#858585" stroke="#858585" stroke-width="1.51"/><path d="M442,1127L366,1461L632,1132Z" fill="#797979" stroke="#797979" stroke-width="1.51"/><path d="M381,631L521,1022L649,642Z" fill="#9d9d9d" stroke="#9d9d9d" stroke-width="1.51"/><path d="M512,-25L627,96L676,-57Z" fill="#cacaca" stroke="#cacaca" stroke-width="1.51"/><path d="M420,455L381,631L596,452Z" fill="#b0b0b0" stroke="#b0b0b0" stroke-width="1.51"/><path d="M596,452L381,631L649,642Z" fill="#a9a9a9" stroke="#a9a9a9" stroke-width="1.51"/><path d="M186,-442L512,-25L520,-477Z" fill="#dfdfdf" stroke="#dfdfdf" stroke-width="1.51"/><path d="M528,214L420,455L596,452Z" fill="#b8b8b8" stroke="#b8b8b8" stroke-width="1.51"/><path d="M521,1022L442,1127L632,1132Z" fill="#868686" stroke="#868686" stroke-width="1.51"/><path d="M381,631L244,955L521,1022Z" fill="#9b9b9b" stroke="#9b9b9b" stroke-width="1.51"/><path d="M512,-25L528,214L627,96Z" fill="#c8c8c8" stroke="#c8c8c8" stroke-width="1.51"/><path d="M186,-442L126,-120L512,-25Z" fill="#e0e0e0" stroke="#e0e0e0" stroke-width="1.51"/><path d="M239,1423L366,1461L442,1127Z" fill="#757575" stroke="#757575" stroke-width="1.51"/><path d="M97,339L420,455L528,214Z" fill="#c2c2c2" stroke="#c2c2c2" stroke-width="1.51"/><path d="M105,104L97,339L528,214Z" fill="#cdcdcd" stroke="#cdcdcd" stroke-width="1.51"/><path d="M512,-25L105,104L528,214Z" fill="#cecece" stroke="#cecece" stroke-width="1.51"/><path d="M244,955L442,1127L521,1022Z" fill="#8f8f8f" stroke="#8f8f8f" stroke-width="1.51"/><path d="M126,-120L105,104L512,-25Z" fill="#d9d9d9" stroke="#d9d9d9" stroke-width="1.51"/><path d="M172,659L244,955L381,631Z" fill="#a7a7a7" stroke="#a7a7a7" stroke-width="1.51"/><path d="M244,955L156,1113L442,1127Z" fill="#919191" stroke="#919191" stroke-width="1.51"/><path d="M156,1113L239,1423L442,1127Z" fill="#828282" stroke="#828282" stroke-width="1.51"/><path d="M172,659L381,631L420,455Z" fill="#b0b0b0" stroke="#b0b0b0" stroke-width="1.51"/><path d="M97,339L172,659L420,455Z" fill="#bbbbbb" stroke="#bbbbbb" stroke-width="1.51"/><path d="M97,339L-79,442L172,659Z" fill="#c1c1c1" stroke="#c1c1c1" stroke-width="1.51"/><path d="M-81,-210L126,-120L186,-442Z" fill="#e9e9e9" stroke="#e9e9e9" stroke-width="1.51"/><path d="M156,1113L-171,1262L239,1423Z" fill="#848484" stroke="#848484" stroke-width="1.51"/><path d="M-171,1262L-149,1417L239,1423Z" fill="#7d7d7d" stroke="#7d7d7d" stroke-width="1.51"/><path d="M172,659L-128,860L244,955Z" fill="#a7a7a7" stroke="#a7a7a7" stroke-width="1.51"/><path d="M-128,860L156,1113L244,955Z" fill="#9d9d9d" stroke="#9d9d9d" stroke-width="1.51"/><path d="M-79,442L-145,651L172,659Z" fill="#bcbcbc" stroke="#bcbcbc" stroke-width="1.51"/><path d="M-145,651L-128,860L172,659Z" fill="#b2b2b2" stroke="#b2b2b2" stroke-width="1.51"/><path d="M-133,-430L-81,-210L186,-442Z" fill="#efefef" stroke="#efefef" stroke-width="1.51"/><path d="M-101,134L97,339L105,104Z" fill="#d5d5d5" stroke="#d5d5d5" stroke-width="1.51"/><path d="M-101,134L105,104L126,-120Z" fill="#dddddd" stroke="#dddddd" stroke-width="1.51"/><path d="M-128,860L-171,1262L156,1113Z" fill="#9a9a9a" stroke="#9a9a9a" stroke-width="1.51"/><path d="M-81,-210L-101,134L126,-120Z" fill="#e4e4e4" stroke="#e4e4e4" stroke-width="1.51"/><path d="M-101,134L-79,442L97,339Z" fill="#d1d1d1" stroke="#d1d1d1" stroke-width="1.51"/><path d="M-451,1019L-364,1242L-171,1262Z" fill="#979797" stroke="#979797" stroke-width="1.51"/><path d="M-451,1019L-171,1262L-128,860Z" fill="#a1a1a1" stroke="#a1a1a1" stroke-width="1.51"/><path d="M-281,44L-302,462L-101,134Z" fill="#dbdbdb" stroke="#dbdbdb" stroke-width="1.51"/><path d="M-437,-167L-281,44L-81,-210Z" fill="#ececec" stroke="#ececec" stroke-width="1.51"/><path d="M-133,-430L-279,-394L-81,-210Z" fill="#f3f3f3" stroke="#f3f3f3" stroke-width="1.51"/><path d="M-281,44L-101,134L-81,-210Z" fill="#e6e6e6" stroke="#e6e6e6" stroke-width="1.51"/><path d="M-101,134L-302,462L-79,442Z" fill="#d1d1d1" stroke="#d1d1d1" stroke-width="1.51"/><path d="M-302,462L-145,651L-79,442Z" fill="#c5c5c5" stroke="#c5c5c5" stroke-width="1.51"/><path d="M-279,-394L-437,-167L-81,-210Z" fill="#f2f2f2" stroke="#f2f2f2" stroke-width="1.51"/><path d="M-145,651L-330,627L-128,860Z" fill="#b7b7b7" stroke="#b7b7b7" stroke-width="1.51"/><path d="M-302,462L-330,627L-145,651Z" fill="#c2c2c2" stroke="#c2c2c2" stroke-width="1.51"/><path d="M-330,627L-451,1019L-128,860Z" fill="#b1b1b1" stroke="#b1b1b1" stroke-width="1.51"/><path d="M-171,1262L-364,1242L-149,1417Z" fill="#878787" stroke="#878787" stroke-width="1.51"/><path d="M-364,1242L-439,1395L-149,1417Z" fill="#858585" stroke="#858585" stroke-width="1.51"/><path d="M-437,-167L-302,462L-281,44Z" fill="#e3e3e3" stroke="#e3e3e3" stroke-width="1.51"/><path d="M-437,-167L-330,627L-302,462Z" fill="#d8d8d8" stroke="#d8d8d8" stroke-width="1.51"/><path d="M-437,-167L-451,1019L-330,627Z" fill="#cbcbcb" stroke="#cbcbcb" stroke-width="1.51"/><path d="M-451,1019L-439,1395L-364,1242Z" fill="#949494" stroke="#949494" stroke-width="1.51"/></svg>